# xmcd CD database file
#
# Track frame offsets:
#	150
#	18008
#	47131
#	70406
#	93379
#	116069
#	142164
#	164207
#	185640
#	208980
#	229982
#	252327
#	283984
#
# Disc length: 4204 seconds
#
# Revision: 0
# Processed by: cddbd v1.5PL3 Copyright (c) Steve Scherf et al.
# Submitted via: CDex 1.50beta10
#
DISCID=d4106a0d
DTITLE=Frankie Ruiz - Exitos eternos
DYEAR=2003
DGENRE=Salsa
TTITLE0=Que siga la fiesta
TTITLE1=La rueda
TTITLE2=Como lo hacen
TTITLE3=Tu con el
TTITLE4=La cura
TTITLE5=Esta cobardia
TTITLE6=Desnudate mujer
TTITLE7=Para darte fuego
TTITLE8=Mirandote
TTITLE9=Puerto rico
TTITLE10=Bailando
TTITLE11=Mi libertad
TTITLE12=Ironia (video)
EXTD=YEAR: 2003
EXTT0=
EXTT1=
EXTT2=
EXTT3=
EXTT4=
EXTT5=
EXTT6=
EXTT7=
EXTT8=
EXTT9=
EXTT10=
EXTT11=
EXTT12=
PLAYORDER=
